<?xml version="1.0" encoding="UTF-8"?> <svg xmlns="http://www.w3.org/2000/svg" width="36" height="35" viewBox="0 0 36 35" fill="none"> <path d="M17.9989 0C8.37287 0 0.570312 7.80255 0.570312 17.4286C0.570312 27.0535 8.37287 34.8571 17.9989 34.8571C27.6249 34.8571 35.4275 27.0535 35.4275 17.4286C35.4275 7.80255 27.6249 0 17.9989 0Z" fill="#32323D"></path> <path d="M24.596 8.63818H11.4004C10.1587 8.63818 9.20117 9.59567 9.20117 10.8375V24.032C9.20117 25.2738 10.1587 26.2312 11.4004 26.2312H24.595C25.8367 26.2312 26.7942 25.2738 26.7942 24.032V10.8375C26.7953 9.59458 25.8367 8.63818 24.596 8.63818ZM18.0113 13.979C19.9622 13.979 21.5439 15.5116 21.5439 17.4015C21.5439 19.2914 19.9622 20.824 18.0113 20.824C16.0615 20.824 14.4799 19.2903 14.4799 17.4015C14.4799 15.5105 16.0615 13.979 18.0113 13.979ZM24.596 23.4819C24.596 23.8675 24.4316 24.032 24.046 24.032H11.9505C11.566 24.032 11.4004 23.8675 11.4004 23.4819V15.785L12.7708 16.0835C12.6237 16.5616 12.5442 17.0671 12.5442 17.5921C12.5442 20.5158 14.9929 22.8893 18.0102 22.8893C21.0297 22.8893 23.4774 20.5168 23.4774 17.5921C23.4774 17.0671 23.3978 16.5616 23.2508 16.0835L24.595 15.785V23.4819H24.596ZM24.596 13.5857C24.596 13.8896 24.3499 14.1358 24.046 14.1358H21.8467C21.5428 14.1358 21.2966 13.8896 21.2966 13.5857V11.3865C21.2966 11.0825 21.5428 10.8364 21.8467 10.8364H24.046C24.3499 10.8364 24.596 11.0825 24.596 11.3865V13.5857Z" fill="white"></path> </svg> 