<?xml version="1.0" encoding="UTF-8"?> <svg xmlns="http://www.w3.org/2000/svg" width="35" height="35" viewBox="0 0 35 35" fill="none"> <path d="M17.5711 0C7.94513 0 0.142578 7.80255 0.142578 17.4286C0.142578 27.0535 7.94513 34.8571 17.5711 34.8571C27.1972 34.8571 34.9997 27.0535 34.9997 17.4286C34.9997 7.80255 27.1972 0 17.5711 0Z" fill="#32323D"></path> <path d="M17.5671 16.565C17.5671 16.5639 24.4634 16.5748 25.2814 17.3928C26.1028 18.212 26.1126 22.2532 26.1126 22.2761C26.1126 22.2761 26.106 26.3392 25.2814 27.1605C24.4623 27.9763 17.5671 27.9949 17.5671 27.9949C17.5671 27.9949 10.6719 27.9774 9.85171 27.1605C9.03039 26.3413 9.0293 22.3066 9.0293 22.2761C9.0293 22.2532 9.03147 18.212 9.85171 17.3928C10.6719 16.5759 17.5671 16.565 17.5671 16.565Z" fill="white"></path> <path d="M24.6405 23.2346V21.9427C24.6405 21.4623 24.5185 21.0941 24.2745 20.8381C24.0294 20.5821 23.6786 20.4536 23.2222 20.4536C22.7756 20.4536 22.4129 20.592 22.1308 20.8686C21.8497 21.1453 21.707 21.5048 21.707 21.9427V24.2182C21.707 24.7073 21.8377 25.0907 22.0926 25.3674C22.3486 25.6462 22.7015 25.7846 23.1471 25.7846C23.6427 25.7846 24.0163 25.6539 24.2647 25.3924C24.5163 25.1277 24.6394 24.7367 24.6394 24.2171V23.9568H23.6155V24.1877C23.6155 24.4872 23.5806 24.679 23.5152 24.7661C23.4499 24.8532 23.3344 24.8968 23.1689 24.8968C23.0098 24.8968 22.8987 24.8467 22.8312 24.7432C22.7669 24.6397 22.7342 24.4546 22.7342 24.1877V23.2346H24.6405ZM22.7342 22.4437V21.9318C22.7342 21.7194 22.768 21.5669 22.8366 21.4775C22.9063 21.3828 23.0207 21.3381 23.1787 21.3381C23.3301 21.3381 23.4423 21.3828 23.5087 21.4775C23.5784 21.5669 23.6144 21.7194 23.6144 21.9318V22.4437H22.7342Z" fill="#333333"></path> <path d="M20.9357 20.8394C20.7701 20.6248 20.5294 20.5169 20.2135 20.5169C20.0588 20.5169 19.9063 20.5561 19.7538 20.6378C19.6035 20.7174 19.4619 20.8361 19.3268 20.9897V18.7773H18.3203V25.6464H19.3268V25.2575C19.4564 25.4144 19.6002 25.5266 19.7527 25.6006C19.9041 25.6747 20.0773 25.7106 20.2734 25.7106C20.5686 25.7106 20.7963 25.617 20.9509 25.4242C21.1078 25.2325 21.1851 24.958 21.1851 24.5996V21.787C21.1851 21.372 21.1034 21.055 20.9357 20.8394ZM20.1601 24.4591C20.1601 24.6225 20.1296 24.7368 20.073 24.8076C20.0163 24.8806 19.927 24.9155 19.805 24.9155C19.72 24.9155 19.6416 24.897 19.5643 24.861C19.4869 24.8261 19.4074 24.763 19.3268 24.6824V21.5245C19.3944 21.4548 19.463 21.4025 19.5327 21.3698C19.6013 21.3361 19.6721 21.3208 19.744 21.3208C19.878 21.3208 19.9826 21.3644 20.0545 21.4526C20.1242 21.5409 20.1601 21.6716 20.1601 21.8415V24.4591Z" fill="#333333"></path> <path d="M16.5762 25.6451V25.0885C16.391 25.2944 16.2004 25.4512 15.9999 25.558C15.8006 25.6669 15.6078 25.7192 15.4215 25.7192C15.1906 25.7192 15.0196 25.6451 14.9008 25.4926C14.7865 25.3412 14.7266 25.1168 14.7266 24.814V20.5767H15.7222V24.4632C15.7222 24.5841 15.7429 24.6702 15.7832 24.7247C15.8267 24.7791 15.8954 24.8053 15.988 24.8053C16.0609 24.8053 16.1546 24.7704 16.2668 24.6974C16.379 24.6255 16.4814 24.5362 16.5762 24.4262V20.5767H17.5707V25.6451H16.5762Z" fill="#333333"></path> <path d="M13.1271 19.7751V25.6453H12.003V19.7751H10.8418V18.7773H14.2883V19.7751H13.1271Z" fill="#333333"></path> <path d="M23.1749 14.4395H22.053V13.823C21.8482 14.0496 21.6325 14.2238 21.4081 14.3415C21.1848 14.4602 20.968 14.5201 20.7578 14.5201C20.4964 14.5201 20.3025 14.4363 20.1718 14.2707C20.0411 14.104 19.9746 13.8557 19.9746 13.5223V8.85693H21.0944V13.1367C21.0944 13.2685 21.1205 13.3644 21.1674 13.4232C21.2131 13.4831 21.2905 13.5125 21.395 13.5125C21.4767 13.5125 21.5813 13.4733 21.7077 13.3949C21.8329 13.3165 21.9495 13.2163 22.053 13.0943V8.85693H23.1749V14.4395Z" fill="white"></path> <path d="M18.6211 9.12164C18.3238 8.85149 17.9425 8.71533 17.4785 8.71533C16.9698 8.71533 16.5624 8.84387 16.2617 9.09985C15.9589 9.35583 15.8075 9.70005 15.8086 10.1336V13.0267C15.8086 13.5017 15.9567 13.8785 16.2498 14.1596C16.545 14.4395 16.9382 14.58 17.4284 14.58C17.9392 14.58 18.3379 14.4439 18.6309 14.1727C18.9207 13.9003 19.0656 13.5267 19.0656 13.0496V10.1652C19.0645 9.74035 18.9163 9.39178 18.6211 9.12164ZM17.9218 13.1335C17.9218 13.2816 17.8772 13.3993 17.7878 13.4864C17.6974 13.5714 17.5776 13.6139 17.4262 13.6139C17.277 13.6139 17.1626 13.5725 17.0842 13.4886C17.0046 13.4036 16.9632 13.286 16.9632 13.1335V10.0922C16.9632 9.97019 17.0068 9.87106 17.0918 9.7959C17.1778 9.72074 17.2889 9.68371 17.4262 9.68371C17.5732 9.68371 17.6931 9.72074 17.7846 9.7959C17.8761 9.87106 17.9218 9.97019 17.9218 10.0922V13.1335Z" fill="white"></path> <path d="M12.7528 6.87354H11.4805L12.9837 11.442V14.4397H14.2473V11.3004L15.7167 6.87354H14.4324L13.6525 9.89739H13.573L12.7528 6.87354Z" fill="white"></path> </svg> 