<?xml version="1.0" encoding="UTF-8"?> <svg xmlns="http://www.w3.org/2000/svg" width="62" height="61" viewBox="0 0 62 61" fill="none"> <g opacity="0.3"> <path d="M21.5487 2.51694C22.5749 2.58895 23.619 2.60695 24.6271 2.55294C31.2878 0.788749 37.4805 2.85898 44.1052 3.48904C44.8253 3.43504 45.5454 3.34503 46.2654 3.25502C44.9153 2.37292 43.4931 1.61684 41.999 0.950767C41.2429 0.914763 40.5048 0.842755 39.7487 0.752745C35.7523 0.104674 31.9899 -0.255364 27.7054 0.212687C26.4093 0.302696 25.0951 0.356703 23.799 0.392707C22.5028 0.410709 21.2067 0.410708 19.8926 0.374704C19.7485 0.356702 19.5865 0.356703 19.4245 0.356703C18.2364 0.806752 17.0483 1.34681 15.9321 1.94088C16.7782 2.08489 17.6063 2.1929 18.4704 2.28291C19.4785 2.35492 20.5226 2.44493 21.5487 2.51694Z" fill="url(#paint0_linear)"></path> <path d="M16.8861 8.58319C17.8042 8.27716 18.7223 8.11514 19.5504 7.91712C27.8673 4.91079 36.7783 5.93691 45.4732 6.765C46.8774 6.62098 48.2995 6.44096 49.4877 6.18893C49.6677 6.17093 49.8297 6.13493 49.9737 6.09892C49.4697 5.63087 48.9296 5.18082 48.3715 4.76678C47.3634 4.83879 46.3373 4.9108 45.3112 4.9648C44.3211 5.01881 43.421 4.9468 42.4849 4.85679C35.3921 3.54265 27.8673 4.56876 20.7025 5.0008C19.6584 4.9648 18.5963 4.91079 17.5522 4.89279C15.4099 4.85679 13.2677 4.89279 11.1615 5.09081C10.0094 6.00891 8.92924 7.01702 7.92113 8.09714C9.77533 7.7371 11.5935 7.53908 13.4837 7.44907C13.0697 7.62909 12.6736 7.80911 12.2956 7.98913C10.2974 8.92523 8.51519 10.1854 6.51698 11.1575C6.04893 11.4095 5.54487 11.6075 5.00481 11.8055C4.77079 12.1656 4.53676 12.5436 4.30273 12.9037C6.733 12.5076 9.10926 11.8776 11.3775 10.9054C13.1957 10.0954 14.9779 9.19526 16.8861 8.58319Z" fill="url(#paint1_linear)"></path> <path d="M12.1532 18.1613C12.9272 18.1793 13.6833 18.1973 14.4574 18.1973C15.8616 18.2873 17.5897 17.9453 18.5979 18.6294C21.5862 20.1595 24.6285 21.4737 27.7428 22.4458C28.769 22.7698 29.8131 23.0759 30.8572 23.3099C35.8437 23.3819 40.8123 23.0038 45.7448 22.8418C46.7349 22.8058 47.725 22.7698 48.7151 22.7518C52.1535 22.4098 55.8619 23.0759 59.3903 22.4638C59.2283 21.7077 59.0303 20.9336 58.8142 20.1955C57.0681 19.8355 54.9438 20.0155 52.9996 20.1955C52.2795 20.2856 51.5594 20.3396 50.9114 20.3756C45.3488 21.3837 39.5341 21.3837 33.9895 21.5637C33.1794 21.4737 32.3694 21.2937 31.5773 21.0236C30.5332 20.8076 29.525 20.5196 28.4809 20.1775C25.4026 19.1874 22.3963 17.7833 19.48 15.9651C18.5799 15.8031 17.8958 15.7311 16.5636 15.7131C14.7274 15.659 12.8912 15.569 11.037 15.533C11.8111 15.281 12.5672 15.047 13.3413 14.777C14.1154 14.5429 14.8895 14.2729 15.6455 14.0389C24.4305 9.03433 35.0696 6.64007 45.0247 10.7445C46.7349 11.4286 48.8051 11.7706 50.6413 11.2126C51.4874 11.1046 52.3515 10.9785 53.1616 10.7985C53.4677 10.7445 53.7737 10.6545 54.0797 10.5825C53.8997 10.3485 53.7197 10.1144 53.5397 9.88042C53.3236 9.89842 53.0896 9.89842 52.8736 9.89842C51.9915 9.89842 51.1274 9.88042 50.2633 9.84442C48.4451 10.0604 46.7349 9.7004 45.3488 9.01633C35.4117 4.56984 25.1146 6.28003 16.0956 11.5546C15.3215 11.8246 14.5474 12.0947 13.7733 12.3827C12.9992 12.6527 12.2432 12.9227 11.4691 13.1748C8.67877 14.1109 5.85247 14.813 2.97215 15.371C2.4501 16.4511 1.98205 17.5313 1.604 18.6654C2.84614 18.5034 4.07027 18.3413 5.29441 18.2153C7.59866 17.9813 9.8669 18.0893 12.1532 18.1613Z" fill="url(#paint2_linear)"></path> <path d="M49.8647 13.3368C40.2157 11.7706 29.9185 7.64815 20.6655 13.8408C26.5702 14.0929 31.7367 16.2711 37.2453 17.9273C38.1814 18.1973 39.1175 18.4493 40.0536 18.7014C40.9897 18.8454 41.9618 19.0794 42.952 19.1874C43.9421 19.3314 44.9142 19.3854 45.8503 19.0974C46.7864 18.8994 47.7045 18.6834 48.6766 18.7194C49.5407 18.7194 50.5668 18.7554 51.6109 18.6474C53.6091 18.5033 55.6793 18.4853 57.6776 18.4313C57.8756 18.4313 58.0556 18.4313 58.2536 18.4313C57.9116 17.4772 57.5335 16.5591 57.1195 15.677C55.9854 15.713 54.8873 15.821 53.8611 15.9111C52.871 15.9831 51.9169 16.0731 50.9448 16.1631C43.9781 18.2873 38.1634 14.1829 31.9888 12.4727C38.4875 11.4286 43.636 17.2612 50.2067 15.191C51.3949 14.975 52.727 14.7409 53.9872 14.4169C54.7252 14.2189 55.4453 14.0208 56.1474 13.7688C56.0034 13.5348 55.8594 13.3188 55.7513 13.0847C55.2473 13.0667 54.7612 13.0127 54.2932 13.0127C53.5551 12.9947 52.817 13.0667 52.0609 13.1388C51.3229 13.2108 50.5848 13.3008 49.8647 13.3368Z" fill="url(#paint3_linear)"></path> <path d="M4.98654 28.9607C4.03244 29.0687 3.09634 29.1947 2.16024 29.3207C1.44016 29.4287 0.702076 29.5368 0 29.6448C0.018002 30.2748 0.0540053 30.9049 0.126013 31.517C0.792086 31.463 1.45816 31.427 2.08823 31.427C12.0793 31.319 21.3323 27.5385 31.1614 27.7906C32.0795 27.5925 32.9976 27.3945 33.8977 27.2145C35.6979 26.8365 37.5341 26.5484 39.3343 26.3324C40.5404 26.1884 41.7645 26.0624 42.9887 25.9904C48.5333 25.8824 54.2579 25.8464 59.8745 26.0804C59.8205 25.2703 59.7125 24.4242 59.5685 23.6141C55.266 23.7941 50.9095 23.8121 46.7331 23.8841C45.599 23.9201 44.4648 23.9742 43.3307 24.0282C38.7762 24.2802 34.2577 24.5862 29.6852 24.7482C28.6051 24.5322 27.489 24.2622 26.3909 23.9562C24.7887 24.1182 23.0605 22.75 21.4043 22.498C20.5762 22.264 19.7662 21.9939 18.9201 21.7239C18.092 21.4719 17.2639 21.1839 16.4178 20.9318C15.5537 20.8778 14.6716 20.8418 13.8255 20.8418C9.43303 20.6978 5.07655 21.2018 0.720079 21.7419C0.558061 22.426 0.414045 23.1281 0.306034 23.8481C0.9181 23.8841 1.51217 23.9201 2.14223 23.9562C3.85242 24.0102 5.5446 23.9201 7.23679 23.8121C8.08288 23.7401 8.94697 23.6681 9.79307 23.6141C10.6932 23.4701 11.5933 23.3801 12.4754 23.3441C13.3935 23.2901 14.2936 23.3081 15.1757 23.3621C18.596 23.4341 22.3764 24.4602 25.4548 26.1704C18.272 25.1443 11.7373 28.9247 4.98654 28.9607Z" fill="url(#paint4_linear)"></path> <path d="M44.5362 27.179C41.4579 27.341 38.3976 27.737 35.3913 28.3491C34.3831 28.5651 33.375 28.8172 32.4029 29.0692C23.0599 30.9774 13.7889 32.7056 4.85993 36.378C3.92382 36.684 3.00573 37.008 1.99762 37.3141C1.78159 37.3501 1.56557 37.3861 1.33154 37.4401C1.43955 37.7821 1.54757 38.0882 1.65558 38.4122C11.8087 37.2961 21.7278 33.5517 31.6108 31.3374C32.4029 31.1574 33.249 30.9594 34.0771 30.8154C34.9052 30.6714 35.7513 30.5093 36.5974 30.4013C37.7135 30.2573 38.8296 30.1493 39.9817 30.0413C46.4985 29.4652 53.2492 29.5012 59.9459 30.0413C59.9819 29.5192 59.9999 28.9792 59.9999 28.4391C59.9999 28.1151 59.9819 27.791 59.9819 27.449C56.0215 27.035 52.0251 27.107 48.1906 26.981C46.9485 27.017 45.7604 27.107 44.5362 27.179Z" fill="url(#paint5_linear)"></path> <path d="M43.853 33.4615C42.7908 33.5515 41.7467 33.6415 40.5946 33.7135C38.2903 33.8755 36.0041 34.1096 33.7359 34.4516C32.9798 34.5776 32.3137 34.6676 31.6296 34.7936C25.4549 35.7837 19.6403 38.178 13.7897 40.2482C11.0534 40.9323 8.31708 41.9584 5.09473 41.9764C4.46466 41.9944 3.8526 41.9944 3.18652 41.9764C3.67258 42.9845 4.23064 43.9566 4.84271 44.8747C15.9139 45.0008 25.1489 37.4939 36.0761 38.502C36.8142 38.466 37.5523 38.448 38.2903 38.412C39.0284 38.394 39.7485 38.376 40.5046 38.358C41.6027 38.322 42.5388 38.268 43.5469 38.214C48.7675 37.89 53.916 36.6658 59.0466 35.8558C59.3166 34.7936 59.5147 33.7315 59.6767 32.6334C54.4201 32.6154 49.0915 33.0114 43.853 33.4615Z" fill="url(#paint6_linear)"></path> <path d="M41.4029 40.0872C40.3048 40.1772 39.1527 40.2672 38.0005 40.3572C37.1004 40.4112 36.2363 40.5012 35.3542 40.5732C34.3641 40.5372 33.482 40.5732 32.5999 40.6812C23.869 42.2294 16.0021 48.7821 6.64111 47.3059C7.4512 48.3141 8.3333 49.2502 9.2514 50.1503C16.1642 51.0324 23.3469 50.5283 29.9897 48.6021C30.9798 48.4041 31.9339 48.224 32.978 48.098C34.0041 48.008 34.9042 48.062 35.8943 48.08C36.9204 48.134 37.9105 48.17 38.9366 48.17C39.9447 48.152 40.9529 48.116 41.979 48.062C45.6694 47.702 49.4138 47.576 53.1942 47.468C53.7882 46.7299 54.3283 45.9918 54.8684 45.1997C51.592 45.5958 48.3157 45.9558 45.0753 45.8838C44.0672 45.9018 43.1131 45.8478 42.069 45.8658C39.9447 45.9018 37.8025 45.8298 35.6783 45.6858C34.5982 45.6318 33.554 45.5418 32.5279 45.4697C30.7277 45.3797 28.8195 45.0917 26.8933 45.6138C29.1796 44.8937 31.4478 43.6875 34.0041 43.9576C34.7422 43.9216 35.4983 43.8496 36.2543 43.7956C37.0284 43.7416 37.7845 43.6876 38.5586 43.6155C39.5847 43.5255 40.5928 43.4355 41.5649 43.3275C46.9655 43.1655 52.1861 41.7613 57.4066 40.6092C57.8027 39.7091 58.1807 38.773 58.4868 37.8369C52.7621 38.647 47.0015 39.9971 41.4029 40.0872Z" fill="url(#paint7_linear)"></path> <path d="M47.3075 49.5564C46.3714 49.5924 45.4533 49.6104 44.4992 49.6824C41.5829 49.8805 38.6846 49.9705 35.8223 49.9525C34.8502 49.9345 33.9141 49.9165 32.96 49.8625C26.4612 51.6086 19.5665 53.0128 12.6357 52.9588C13.7339 53.7149 14.85 54.417 16.0381 55.029C20.5746 55.065 25.0931 54.3989 29.6116 53.1748C30.5657 52.9228 31.4838 52.7248 32.4199 52.5267C33.374 52.3287 34.2921 52.1667 35.2462 52.0407C36.0743 51.9507 36.8844 51.8787 37.6945 51.7707C39.3326 51.5906 40.9528 51.4646 42.573 51.3746C43.4011 51.3026 44.1932 51.2486 45.0213 51.1946C46.6414 50.9426 48.3156 50.8526 49.9538 50.8166C50.4759 50.3485 50.9979 49.8625 51.484 49.3584C50.0978 49.4124 48.7117 49.4844 47.3075 49.5564Z" fill="url(#paint8_linear)"></path> <path d="M32.1865 57.1539C33.0686 57.0279 33.9507 56.9019 34.8148 56.7759C36.993 56.4879 39.1892 56.2718 41.4215 56.1998C43.1137 55.4978 44.7518 54.6337 46.3 53.6436C46.012 53.6436 45.7419 53.6436 45.4719 53.6436C40.6834 53.6616 35.8049 53.8056 30.9623 54.6877C29.9362 55.0297 28.8741 55.3357 27.848 55.5878C26.9299 55.8218 25.9938 56.0378 25.0757 56.1998C24.1396 56.3799 23.2035 56.5239 22.2854 56.6319C21.6373 56.7399 20.9712 56.8119 20.3052 56.8659C22.0874 57.478 23.9596 57.928 25.8858 58.162C27.992 57.928 30.0982 57.586 32.1865 57.1539Z" fill="url(#paint9_linear)"></path> </g> <path d="M59.0951 32.1201C59.0947 32.1193 59.0942 32.1184 59.0938 32.1177C59.0926 32.1157 59.0916 32.1138 59.0906 32.1118C58.3915 30.7949 57.5402 29.5606 56.5572 28.4361C57.17 27.0291 57.4789 25.9006 57.4789 25.0619C57.4789 21.168 54.3109 18 50.417 18C47.6528 18 45.2549 19.5966 44.096 21.9158C43.5152 21.8517 42.9266 21.8131 42.3395 21.8016C42.339 21.8016 42.3387 21.8016 42.3382 21.8016C42.2132 21.7987 42.0855 21.7973 41.9484 21.7973C41.947 21.7973 41.9456 21.7971 41.9441 21.7971C41.9425 21.7971 41.941 21.7973 41.9394 21.7973C39.0909 21.7979 36.3465 22.4019 33.782 23.5926C31.3898 24.7033 29.2834 26.2613 27.5168 28.2257C23.8765 28.5049 21 31.5562 21 35.2668C21 36.3645 21.5294 37.9589 22.5771 40.0252C22.5537 40.4148 22.5412 40.8089 22.5412 41.1999C22.5412 43.819 23.0542 46.36 24.0662 48.7525C25.0435 51.0629 26.4425 53.138 28.2241 54.9196C30.0057 56.7012 32.0806 58.1001 34.3912 59.0774C36.7821 60.0886 39.3212 60.6018 41.9383 60.6025C41.9402 60.6026 41.942 60.6027 41.944 60.6027C41.9453 60.6027 41.9465 60.6026 41.9479 60.6026C42.0846 60.6025 42.2125 60.601 42.3386 60.5982C42.3389 60.5982 42.3392 60.5982 42.3394 60.5982C44.9161 60.5467 47.4106 59.9976 49.7535 58.9664C52.0198 57.9689 54.0517 56.5634 55.7931 54.7888C57.5362 53.0127 58.9037 50.9528 59.8578 48.6662C60.8458 46.2986 61.3467 43.7865 61.3467 41.1998C61.3469 38.0362 60.5682 34.8963 59.0951 32.1201ZM53.4405 40.5219C53.4034 38.5607 53.2044 36.7034 52.8473 34.988C53.2241 34.4142 53.6302 33.7802 54.0381 33.1159H58.0822C59.2309 35.4063 59.8802 37.9458 59.9774 40.5219H53.4405ZM41.266 23.4561V31.7597H34.1899C34.1103 31.6211 34.0259 31.4855 33.9372 31.353C35.3902 27.9186 37.4853 25.8834 39.01 24.7719C39.8985 24.1241 40.6991 23.7077 41.266 23.4561ZM34.7886 33.1158H41.266V40.5218H33.29C34.5082 38.2128 35.124 36.4508 35.124 35.2667C35.1239 34.517 35.0061 33.7943 34.7886 33.1158ZM32.1874 42.4843C32.309 42.2787 32.4269 42.0767 32.541 41.878H41.266V49.1243H33.2421C32.6324 47.1277 32.2784 44.8974 32.1874 42.4843ZM41.266 50.4804V58.9438C40.6432 58.6672 39.7381 58.1915 38.7442 57.4292C37.1834 56.2323 35.0982 54.0776 33.709 50.4804H41.266ZM42.622 50.4804H50.5445C48.2529 56.4228 44.0519 58.5335 42.622 59.0982V50.4804ZM42.622 49.1243V41.878H52.0844C52.0323 44.5299 51.6728 46.9624 51.0124 49.1243H42.622ZM42.622 40.5219V33.1159H46.7959C48.3382 35.6274 49.8539 37.7076 49.8694 37.729C49.9971 37.9039 50.2006 38.0072 50.417 38.0072C50.6335 38.0072 50.8369 37.9039 50.9645 37.729C50.9716 37.7194 51.2811 37.2946 51.7595 36.6022C51.9485 37.8442 52.0571 39.1554 52.0841 40.5219H42.622ZM57.3276 31.7597H54.8463C55.2505 31.0594 55.6092 30.3999 55.9208 29.7835C56.4335 30.4105 56.9039 31.0707 57.3276 31.7597ZM50.417 19.3562C53.5632 19.3562 56.1228 21.9158 56.1228 25.0619C56.1228 27.0904 53.5929 31.3974 51.5911 34.4342C51.571 34.4601 51.5533 34.4878 51.5371 34.5163C51.1322 35.1288 50.7502 35.6878 50.417 36.1628C48.4294 33.3298 44.7112 27.5223 44.7112 25.0619C44.7112 21.9158 47.2708 19.3562 50.417 19.3562ZM45.9878 31.7597H42.622V23.1664C42.9477 23.1785 43.2734 23.1991 43.5969 23.2284C43.4395 23.8134 43.355 24.428 43.355 25.0619C43.355 26.4818 44.2404 28.7321 45.9878 31.7597ZM38.4706 23.4912C38.4039 23.5377 38.3367 23.585 38.269 23.634C37.1614 24.4332 36.1496 25.3944 35.2614 26.4908C34.3686 27.593 33.5999 28.8348 32.9685 30.1929C31.981 29.2376 30.7167 28.5669 29.3089 28.3151C31.838 25.8364 35.0276 24.1668 38.4706 23.4912ZM28.0619 29.561C31.2082 29.561 33.7678 32.1205 33.7678 35.2668C33.7678 37.7258 30.0494 43.5342 28.0619 46.3676C26.0744 43.5347 22.3561 37.7271 22.3561 35.2668C22.3561 32.1205 24.9158 29.561 28.0619 29.561ZM23.9438 42.4963C24.0564 42.6863 24.1716 42.8787 24.2907 43.0746C25.8832 45.6949 27.4985 47.9117 27.5145 47.9338C27.6421 48.1086 27.8456 48.212 28.062 48.212C28.2786 48.212 28.482 48.1086 28.6097 47.9338C28.6228 47.9158 29.7009 46.4362 30.9624 44.4685C31.1247 46.1169 31.4139 47.6744 31.8277 49.1243H25.7322C24.7377 47.098 24.1122 44.8593 23.9438 42.4963ZM26.4715 50.4804H32.2628C32.905 52.2778 33.7607 53.9066 34.8113 55.3274C35.7279 56.5668 36.7933 57.6512 37.9779 58.5505C38.1462 58.6782 38.312 58.7984 38.4748 58.9117C33.3883 57.9173 29.0598 54.7794 26.4715 50.4804ZM45.9451 58.7941C46.1121 58.6746 46.2817 58.5481 46.4534 58.4136C47.6054 57.5119 48.6412 56.4325 49.5318 55.2057C50.5416 53.8146 51.3674 52.2266 51.9911 50.4804H57.3892C54.8855 54.6108 50.7746 57.6844 45.9451 58.7941ZM58.1341 49.1243H52.4261C53.0506 46.9364 53.3911 44.5061 53.441 41.878H59.978C59.8802 44.4618 59.2267 46.9169 58.1341 49.1243Z" fill="url(#paint10_linear)"></path> <path d="M50.4171 27.9467C52.2403 27.9467 53.7234 26.4634 53.7234 24.6403C53.7234 22.8172 52.2402 21.334 50.4171 21.334C48.594 21.334 47.1108 22.8172 47.1108 24.6403C47.1108 26.4634 48.594 27.9467 50.4171 27.9467ZM50.4171 22.6901C51.4925 22.6901 52.3674 23.5651 52.3674 24.6403C52.3674 25.7157 51.4925 26.5905 50.4171 26.5905C49.3418 26.5905 48.4669 25.7157 48.4669 24.6403C48.4669 23.5649 49.3418 22.6901 50.4171 22.6901Z" fill="url(#paint11_linear)"></path> <path d="M31.3685 34.8453C31.3685 33.0221 29.8853 31.5391 28.0622 31.5391C26.2391 31.5391 24.7559 33.0222 24.7559 34.8453C24.7559 36.6684 26.2392 38.1516 28.0622 38.1516C29.8853 38.1518 31.3685 36.6685 31.3685 34.8453ZM26.1119 34.8453C26.1119 33.77 26.9868 32.8951 28.0621 32.8951C29.1374 32.8951 30.0123 33.77 30.0123 34.8453C30.0123 35.9206 29.1374 36.7955 28.0621 36.7955C26.9868 36.7955 26.1119 35.9207 26.1119 34.8453Z" fill="url(#paint12_linear)"></path> <defs> <linearGradient id="paint0_linear" x1="15.9321" y1="1.75804" x2="37.5969" y2="-11.7847" gradientUnits="userSpaceOnUse"> <stop stop-color="#A7845B"></stop> <stop offset="1" stop-color="#DDB174"></stop> </linearGradient> <linearGradient id="paint1_linear" x1="4.30273" y1="8.59074" x2="44.0033" y2="-6.406" gradientUnits="userSpaceOnUse"> <stop stop-color="#A7845B"></stop> <stop offset="1" stop-color="#DDB174"></stop> </linearGradient> <linearGradient id="paint2_linear" x1="1.604" y1="14.9594" x2="55.7136" y2="1.61651" gradientUnits="userSpaceOnUse"> <stop stop-color="#A7845B"></stop> <stop offset="1" stop-color="#DDB174"></stop> </linearGradient> <linearGradient id="paint3_linear" x1="20.6655" y1="14.9549" x2="54.7623" y2="4.44438" gradientUnits="userSpaceOnUse"> <stop stop-color="#A7845B"></stop> <stop offset="1" stop-color="#DDB174"></stop> </linearGradient> <linearGradient id="paint4_linear" x1="8.67933e-08" y1="26.2084" x2="51.1878" y2="5.61337" gradientUnits="userSpaceOnUse"> <stop stop-color="#A7845B"></stop> <stop offset="1" stop-color="#DDB174"></stop> </linearGradient> <linearGradient id="paint5_linear" x1="1.33154" y1="32.7409" x2="52.6228" y2="13.8133" gradientUnits="userSpaceOnUse"> <stop stop-color="#A7845B"></stop> <stop offset="1" stop-color="#DDB174"></stop> </linearGradient> <linearGradient id="paint6_linear" x1="3.18652" y1="38.802" x2="53.7356" y2="22.0325" gradientUnits="userSpaceOnUse"> <stop stop-color="#A7845B"></stop> <stop offset="1" stop-color="#DDB174"></stop> </linearGradient> <linearGradient id="paint7_linear" x1="6.64111" y1="44.2529" x2="54.0745" y2="30.3661" gradientUnits="userSpaceOnUse"> <stop stop-color="#A7845B"></stop> <stop offset="1" stop-color="#DDB174"></stop> </linearGradient> <linearGradient id="paint8_linear" x1="12.6357" y1="52.2164" x2="43.6923" y2="36.9221" gradientUnits="userSpaceOnUse"> <stop stop-color="#A7845B"></stop> <stop offset="1" stop-color="#DDB174"></stop> </linearGradient> <linearGradient id="paint9_linear" x1="20.3052" y1="55.9203" x2="42.3535" y2="46.8" gradientUnits="userSpaceOnUse"> <stop stop-color="#A7845B"></stop> <stop offset="1" stop-color="#DDB174"></stop> </linearGradient> <linearGradient id="paint10_linear" x1="21" y1="39.4664" x2="60.8919" y2="36.75" gradientUnits="userSpaceOnUse"> <stop stop-color="#A7845B"></stop> <stop offset="1" stop-color="#DDB174"></stop> </linearGradient> <linearGradient id="paint11_linear" x1="47.1108" y1="24.666" x2="53.6454" y2="24.1961" gradientUnits="userSpaceOnUse"> <stop stop-color="#A7845B"></stop> <stop offset="1" stop-color="#DDB174"></stop> </linearGradient> <linearGradient id="paint12_linear" x1="24.7559" y1="34.871" x2="31.2905" y2="34.4011" gradientUnits="userSpaceOnUse"> <stop stop-color="#A7845B"></stop> <stop offset="1" stop-color="#DDB174"></stop> </linearGradient> </defs> </svg> 