<?xml version="1.0" encoding="UTF-8"?> <svg xmlns="http://www.w3.org/2000/svg" width="65" height="61" viewBox="0 0 65 61" fill="none"> <g opacity="0.3"> <path d="M53.0559 47.2082C53.789 46.695 54.577 46.2919 55.3834 45.9437C56.2813 44.5509 57.051 43.0664 57.6925 41.527C56.9044 40.1526 57.0327 38.4116 56.1897 37.1104C55.3284 35.7543 54.2105 34.7097 53.0376 33.7017C50.6369 31.6492 48.0895 29.9448 45.5971 28.0389C43.288 26.2979 41.3088 24.3187 39.6228 21.863C38.7065 20.5068 37.7718 19.114 36.6356 17.9961C35.591 17.0065 34.4364 16.2185 33.5018 15.0823C32.4755 13.8727 31.6325 12.6632 30.2397 11.9118C28.7553 11.1055 27.1976 10.519 25.5849 10.1342C22.3594 9.36446 19.0424 9.08957 15.7253 9.08957C14.0393 9.1079 12.0051 8.90631 10.3924 9.47442C9.36613 9.80429 8.37651 10.1891 7.31358 10.3174C7.07534 10.5923 6.85543 10.8672 6.61719 11.1421C12.4083 11.0871 18.2177 10.1342 23.9538 11.4353C29.1951 12.5899 32.9337 15.5587 36.0858 20.177C37.6252 22.4128 39.1463 24.5019 41.1805 26.2246C43.0498 27.764 45.029 29.0652 46.9899 30.403C50.4353 32.6938 54.0089 35.6993 54.8702 40.2625C55.5666 43.8545 53.0926 47.9596 49.7205 48.491C46.2569 49.0225 42.9215 46.8233 39.9893 45.1373C38.3399 44.2027 37.0204 42.9198 35.6643 41.582C33.4835 39.4012 31.6509 38.5399 28.7553 39.5661C26.4279 40.3908 24.0638 41.1055 21.773 42.0585C19.3723 43.0481 17.5396 44.4592 15.3588 45.8704C12.9581 47.4647 10.0442 48.601 7.14865 49.444C7.5335 49.8838 7.90003 50.3053 8.3032 50.7268C10.2824 49.7922 12.2067 48.7659 14.0393 47.9412C15.6337 47.2082 17.2464 46.4018 18.8958 45.8704C20.6551 45.2839 22.4144 44.8624 23.9538 43.7628C25.1634 42.9015 26.3729 42.0585 27.8207 41.7836C28.9752 41.5637 30.1664 42.0219 31.2843 42.2784C32.4389 42.535 33.5751 43.0298 34.5831 43.7079C35.7926 44.5325 36.9288 45.7421 38.3216 46.1819C39.6594 46.5851 40.869 46.915 42.0235 47.7396C43.1597 48.5643 44.0761 49.4257 45.4688 49.6639C46.8067 49.9205 48.8775 50.2687 50.2337 49.7739C51.4615 49.2974 51.993 47.9596 53.0559 47.2082Z" fill="url(#paint0_linear)"></path> <path d="M0.568359 24.0081C1.61296 24.283 2.65755 24.503 3.57387 25.1444C4.83838 26.024 5.71804 27.82 5.16825 29.4694C4.74675 30.7339 3.99537 31.7785 3.50056 33.0247C3.13403 33.9593 2.65755 35.0589 1.86952 35.6636C1.48467 35.9569 1.06317 36.1951 0.659991 36.3784C0.898232 37.3863 1.13647 38.3576 1.46635 39.3106C2.12609 39.0357 2.74918 38.7241 3.33562 38.2477C5.75469 36.3417 5.9013 32.4199 8.11878 30.2757C11.4358 27.1053 16.0907 28.8646 20.0858 27.8933C20.6723 27.765 23.7694 27.0686 23.5312 26.4455C22.6148 24.0631 17.9233 24.5763 16.1273 24.5763C13.3784 24.5763 10.5012 24.9061 7.86221 23.9165C5.5531 23.1102 3.57387 21.6441 1.61296 20.1963C1.19145 21.4241 0.843253 22.6887 0.568359 24.0081Z" fill="url(#paint1_linear)"></path> <path d="M11.8006 46.6959C13.8165 45.1565 15.7957 43.2872 18.0132 42.096C19.9558 41.0148 22.0083 40.2451 24.0792 39.4937C26.1317 38.724 28.4591 37.3862 30.64 37.2213C32.5276 37.1113 33.9937 38.0276 35.4231 39.2555C38.4103 41.8944 41.4341 45.7063 45.246 46.8425C47.1886 47.429 49.7543 47.7405 51.3303 45.9995C53.2179 43.9653 53.841 40.9598 52.5765 38.3025C50.2674 33.4644 45.5209 31.5218 41.654 28.4796C39.8031 27.0319 38.1171 25.4375 36.651 23.4949C35.3132 21.7722 34.1953 19.8846 32.7108 18.2902C29.1006 14.3318 24.5007 12.8657 19.4426 12.5541C14.9893 12.2792 10.5544 12.4075 6.11944 11.8027C5.80789 12.1876 5.49635 12.6091 5.20312 13.0489C7.87876 13.3055 10.6277 13.1222 13.3033 13.2322C15.979 13.3421 18.6179 13.8553 21.2386 14.4784C25.472 15.4863 30.3468 16.5126 33.3889 20.1962C34.8 21.9372 35.6064 23.7148 36.2845 25.8956C37.2557 28.8645 39.2716 29.4876 41.7457 30.5505C45.136 31.9983 49.2594 34.7472 50.5973 38.6324C51.9351 42.4992 49.2411 45.3214 45.7042 44.8633C41.6174 44.3135 37.6589 41.3263 35.1482 37.8077C33.957 36.14 32.4909 33.2811 30.2918 34.9671C28.6058 36.2683 27.2313 37.5511 25.2337 38.2842C24.0425 38.724 22.723 39.1455 21.4585 39.0722C20.4872 39.0172 19.6809 38.6507 18.7279 38.4125C16.6021 37.7894 15.1543 41.1431 13.7432 42.4992C11.3241 44.7717 8.48352 46.3111 5.44137 47.264C5.86287 47.8321 6.26605 48.4003 6.7242 48.9317C8.50185 48.5469 10.2428 47.8688 11.8006 46.6959Z" fill="url(#paint2_linear)"></path> <path d="M0 31.337C0.0549788 32.235 0.128284 33.1513 0.274894 34.031C0.751376 33.6278 1.09958 33.0963 1.42945 32.3266C1.83263 31.337 2.27245 30.4574 2.80392 29.5777C4.30667 27.0487 2.25413 26.1873 0.348199 25.2344C0.274894 25.6742 0.219914 26.114 0.164935 26.5539C1.22786 26.9937 2.1625 27.8184 1.72267 29.2845C1.42945 30.2924 0.769703 30.8789 0 31.337Z" fill="url(#paint3_linear)"></path> <path d="M11.7658 21.7706C14.643 21.7706 17.6485 21.5507 20.4891 22.3754C22.285 22.8885 25.1439 23.9514 25.6754 26.2239C26.1336 28.1665 24.5942 29.3577 23.0914 29.9075C21.2221 30.6038 19.1879 30.6955 17.2087 30.7505C14.8812 30.8238 11.0144 29.5959 9.65826 32.1982C8.10053 35.2221 7.22087 38.2092 4.28867 40.0235C3.62892 40.4267 2.87754 40.7566 2.08951 41.0498C2.54767 42.2044 3.07913 43.3589 3.70222 44.4768C4.61854 44.092 5.51652 43.6155 6.32288 43.0291C8.92521 41.0315 10.1714 37.9527 12.3156 35.5153C14.2398 33.3161 16.494 32.015 19.3345 31.905C22.0285 31.7951 25.0523 32.4365 27.563 30.9521C28.8642 30.164 30.4586 28.7162 29.9821 26.8286C29.5789 25.2526 28.571 23.9514 27.3248 23.0351C24.6125 21.0925 21.3504 20.2312 18.1983 19.5714C13.1586 18.5452 8.11885 17.9587 3.29905 16.2544C2.78591 17.244 2.32775 18.2886 1.90625 19.3515C5.05837 20.671 8.5037 21.7706 11.7658 21.7706Z" fill="url(#paint4_linear)"></path> <path d="M43.9084 4.91025C44.8248 6.00983 45.5578 7.23768 46.3458 8.42889C47.2438 9.80336 48.0502 11.581 49.3697 12.5156C51.3672 13.9451 53.3831 14.8248 55.0875 16.7673C55.9854 17.7936 56.8101 18.8016 57.8364 19.6446C57.983 19.7728 58.1479 19.9011 58.2762 20.0294C57.3416 17.2805 55.9854 14.7514 54.3178 12.4423C54.0612 12.2957 53.8413 12.1491 53.5847 12.0208C52.0086 11.1412 49.6812 10.7013 48.4533 9.23525C47.0789 7.60421 46.1992 5.75326 44.5315 4.36046C43.8351 3.77402 43.1204 3.22423 42.424 2.67445C41.5993 2.30792 40.7746 1.97805 39.9316 1.6665C41.4527 2.54616 42.8272 3.59076 43.9084 4.91025Z" fill="url(#paint5_linear)"></path> <path d="M49.754 7.75147C50.2854 8.33791 50.9268 8.81439 51.6416 9.21757C50.8352 8.39289 50.0105 7.60486 49.1309 6.89014C49.3324 7.20168 49.5524 7.47658 49.754 7.75147Z" fill="url(#paint6_linear)"></path> <path d="M59.9997 29.9818C59.9997 27.4894 59.6698 25.0886 59.12 22.7795C58.9367 22.5596 58.7535 22.3947 58.5519 22.2114C57.544 21.3684 56.4077 20.672 55.4914 19.7007C54.7034 18.8944 54.007 17.9964 53.2006 17.245C51.4963 15.6323 49.1505 15.0642 47.5561 13.3415C45.7968 11.3989 44.8255 8.68664 43.0479 6.74406C39.6026 2.9322 34.1596 1.3928 29.5231 0.183262C29.2665 0.109957 29.0466 0.0549788 28.8084 0C27.4156 0.0549788 26.0594 0.201589 24.7033 0.421504C24.8499 0.43983 24.9782 0.43983 25.0882 0.458156C27.5805 0.769702 29.7797 1.55773 32.0888 2.54735C34.123 3.42701 36.762 3.99512 38.5213 5.49788C40.6288 7.31218 41.7284 10.2444 43.561 12.3885C45.4853 14.6793 47.4645 16.6769 49.9752 18.198C52.1744 19.5358 54.2819 20.8736 56.3344 22.5046C57.5073 23.4759 58.9368 24.7404 58.8085 26.5364C58.7901 26.683 58.5885 26.738 58.5519 26.5731C57.9471 24.5755 55.0699 23.0178 53.4572 22.0282C51.258 20.6903 48.9673 19.5908 46.9147 18.033C44.8988 16.4936 42.9746 15.1375 41.3985 13.0483C39.9324 11.1057 39.1444 7.88029 37.0552 6.57913C35.9739 5.91938 34.7827 5.58951 33.6648 5.00307C32.6202 4.48993 31.649 3.81186 30.6044 3.33538C28.2219 2.29078 25.8029 1.72267 23.2189 1.70434C22.0826 1.68602 20.9098 1.70434 19.7735 1.75932C18.7473 2.10752 17.7577 2.54735 16.8047 3.00551C18.1975 2.95053 19.572 2.96885 20.9281 3.13379C26.8841 3.81186 34.6545 4.91144 38.2464 10.8125C39.1627 12.2969 40.079 13.5981 41.3252 14.7893C42.4248 15.7972 43.6527 16.7685 44.4407 18.1063C45.3203 19.6091 46.4566 21.3501 47.6844 22.5046C48.9306 23.7142 50.2501 24.2823 51.7712 24.942C53.2923 25.6018 54.74 26.1332 56.0779 27.2695C57.3607 28.3874 58.5336 29.6519 59.5965 31.0264C59.7065 31.1913 59.8347 31.3562 59.9447 31.5395C59.9813 31.008 59.9997 30.4949 59.9997 29.9818Z" fill="url(#paint7_linear)"></path> <path d="M59.672 34.3256C58.9023 33.0794 57.9859 31.9799 56.8497 31.0635C55.6952 30.1289 54.5039 29.1576 53.2028 28.4795C51.8283 27.7831 50.3805 27.3067 49.0244 26.5736C46.2755 25.0709 44.6994 22.3769 43.0684 19.628C41.5656 17.0989 38.8167 15.8344 37.1856 13.3604C36.306 11.9859 35.463 10.2632 34.0518 9.47521C32.5491 8.59555 30.9914 7.8625 29.3786 7.31271C26.1716 6.23146 22.4147 5.40678 19.0793 5.4251C16.7152 5.4251 14.3878 5.73665 12.0237 5.90159C11.1257 6.59799 10.2827 7.31271 9.45801 8.06409C12.5735 7.33104 15.8722 7.56928 19.0243 7.71589C24.8704 8.04576 30.8631 9.38358 35.0964 14.0201C36.2327 15.2663 37.6071 16.1093 38.7067 17.3921C39.623 18.4551 40.466 19.5913 41.2907 20.7825C43.3616 23.7147 45.9639 25.8955 48.8595 27.8198C51.4435 29.5241 54.1008 30.9536 56.0983 33.5009C57.4911 35.2786 58.2058 37.6793 58.2608 40.0251C58.9022 38.1924 59.3787 36.2865 59.672 34.3256Z" fill="url(#paint8_linear)"></path> <path d="M12.8845 37.7531C10.7953 40.3738 9.16428 43.5625 6.1771 45.1019C5.62732 45.3952 5.0592 45.6151 4.50942 45.835C4.65603 46.0916 4.82096 46.3115 4.96757 46.5497C5.66397 46.3115 6.34204 46.0732 7.00179 45.7617C9.27424 44.6988 11.4367 43.0311 13.2144 41.1435C14.3689 39.9339 15.3402 37.6248 16.8063 36.8002C18.7123 35.7372 20.8931 37.4416 22.9823 36.9101C24.1735 36.5986 25.6396 36.1954 26.6659 35.4257C27.4539 34.8209 28.132 34.0879 28.9017 33.4831C32.2737 30.8075 34.6194 33.2265 36.7636 36.2504C38.1931 38.2296 40.1906 40.0256 42.2432 41.1801C43.526 41.9132 47.6128 43.8924 48.6207 41.6383C49.7569 39.1459 46.5865 36.342 44.9738 35.1508C43.1045 33.7946 41.2352 32.915 39.1644 32.0353C37.1668 31.1923 35.5907 30.0927 34.6928 27.8936C33.7948 25.7494 33.5749 23.5319 31.9988 21.7726C28.7184 18.1257 23.8619 17.2094 19.482 16.2747C14.6622 15.1935 9.78738 14.5887 5.02255 13.3242C4.58272 13.984 4.16122 14.662 3.77637 15.3584C10.1906 16.3481 16.843 15.8349 22.964 18.3456C25.7312 19.4818 29.0299 20.9113 30.7526 23.7152C32.0721 25.8777 32.2187 28.9748 30.4411 30.9357C25.6213 36.2137 17.5577 31.8154 12.8845 37.7531ZM37.5883 33.1166C38.4496 33.5381 39.2193 34.1612 40.0623 34.6193C40.887 35.0592 41.895 35.1325 42.6463 35.7372C42.8663 35.9205 43.0679 36.1221 43.2694 36.3237C44.5156 36.8735 45.8351 38.138 45.8534 39.4575C45.8534 40.0256 45.3403 40.4837 44.8272 40.3188C42.738 39.7507 41.4002 37.9181 39.5309 36.8735C38.468 36.2687 36.7453 35.499 36.5437 34.0146C36.4338 33.3182 36.9652 32.805 37.5883 33.1166Z" fill="url(#paint9_linear)"></path> <path d="M38.74 57.5439C36.3576 57.9837 34.5066 56.9391 32.3625 55.9678C30.878 55.2714 29.7052 55.9678 28.3307 56.5542C27.1395 57.049 25.9849 57.3606 24.7387 57.6905C23.5109 58.0203 22.2464 58.3136 21.0002 58.6068C22.283 59.01 23.6208 59.3215 24.977 59.5597C26.8829 58.8267 28.7705 58.1486 30.7681 58.0203C32.5641 57.8737 34.2134 58.057 35.8811 58.8267C36.156 58.9733 36.4309 59.1016 36.7058 59.2115C39.4731 58.5885 42.0754 57.5805 44.5128 56.2244C41.5622 55.8945 38.6117 55.2347 36.1193 53.5854C35.0014 52.8523 33.9202 51.9543 32.5641 52.0277C31.5744 52.0826 30.6215 52.1926 29.6868 52.4492C27.561 53.0722 25.4901 53.8603 23.4742 54.8132C21.5133 55.7112 19.5891 56.6092 17.6465 57.3239C18.1596 57.5805 18.6911 57.7821 19.2409 58.002C21.4583 57.1957 23.6575 56.3526 25.7833 55.3081C27.7076 54.3551 29.9617 53.0356 32.1242 53.622C33.2788 53.9336 34.2134 54.9599 35.203 55.5829C36.3393 56.2793 37.4755 56.7925 38.7217 57.1773C38.8866 57.214 38.9233 57.5072 38.74 57.5439Z" fill="url(#paint10_linear)"></path> <path d="M51.4605 50.9289C51.4422 50.9289 51.4239 50.9289 51.4055 50.9289C50.3243 51.2038 49.0598 51.1305 47.9419 51.0572C46.5308 50.9839 45.138 50.6907 43.7818 50.1409C42.499 49.6278 41.4544 48.5832 40.1166 48.1433C38.6688 47.6669 37.221 47.4103 35.9382 46.4757C34.8203 45.6693 33.684 44.8446 32.3646 44.4964C30.312 43.91 28.2045 43.0853 26.1886 44.2765C24.9241 45.0645 23.7879 45.9992 22.3951 46.494C18.7665 47.7768 15.2112 49.1146 11.7292 50.819C10.9778 51.2038 10.2448 51.5703 9.51172 51.9185C10.0065 52.395 10.5563 52.8532 11.0878 53.293C12.114 52.9448 13.122 52.56 14.075 52.0468C16.4024 50.819 18.8031 49.866 21.3138 49.1146C22.56 48.7481 23.6962 48.3449 24.7592 47.5386C25.5289 46.9705 26.2986 46.2924 27.1966 45.9625C29.524 45.0829 31.9064 46.384 34.0506 47.282C36.5613 48.3449 39.0536 49.4262 41.491 50.6357C43.7452 51.717 46.2192 53.4213 48.7666 53.3663C49.7195 52.6149 50.5992 51.7903 51.4605 50.9289Z" fill="url(#paint11_linear)"></path> <path d="M46.6419 54.9431C45.8173 54.8331 44.9743 54.6132 44.0579 54.1917C41.1624 52.8906 38.2668 51.5344 35.353 50.2699C33.0072 49.262 29.5985 46.9712 27.1795 48.6389C26.2448 49.2803 25.3102 50.0866 24.2289 50.4348C22.8361 50.8563 21.4067 51.1862 20.0139 51.5527C18.5661 51.9376 17.1367 52.1942 15.7805 52.8356C14.6443 53.3487 13.5814 53.8802 12.4085 54.2467C12.3902 54.2467 12.3718 54.2467 12.3535 54.265C13.2332 54.8881 14.1312 55.4746 15.0475 56.0243C18.3279 54.8881 21.3517 53.2754 24.5955 51.8826C27.9308 50.4898 32.0909 48.8405 35.4263 51.0946C38.6517 53.2571 42.1154 54.6865 45.7623 55.4929C46.0555 55.3279 46.3487 55.1447 46.6419 54.9431Z" fill="url(#paint12_linear)"></path> </g> <path d="M43.7725 53.5615H21.6836C21.3059 53.5615 21 53.2552 21 52.8779L21.0713 21H21.5713L22.5713 21.5L22.3682 52.1934H43.773C44.1507 52.1934 44.457 52.4997 44.457 52.8774C44.4566 53.2548 44.1503 53.5615 43.7725 53.5615Z" fill="url(#paint13_linear)"></path> <path d="M63.8877 53.5615H61.3722C60.9945 53.5615 60.6886 53.2552 60.6886 52.8778C60.6886 52.5001 60.9945 52.1938 61.3722 52.1938H63.2036V22.39H22.0537C21.6759 22.39 21.3691 22.0841 21.3691 21.7064C21.3691 21.3286 21.5713 21 21.5713 21L63.8877 21.0219C64.265 21.0219 64.5713 21.3286 64.5713 21.7064V52.8778C64.5713 53.2547 64.265 53.5615 63.8877 53.5615Z" fill="url(#paint14_linear)"></path> <path d="M45.892 50.6494H25.0759C24.7604 50.6494 24.5051 50.3936 24.5046 50.0777L24.4863 24.5907C24.4863 24.4386 24.5465 24.2935 24.6541 24.1863C24.7608 24.0787 24.9059 24.0186 25.0576 24.0186H61.0194C61.3353 24.0186 61.591 24.2743 61.591 24.5898V50.0777C61.591 50.2307 61.53 50.3762 61.4211 50.4834C61.3126 50.5923 61.1627 50.6585 61.0128 50.6494L59.1388 50.628C58.8229 50.6241 58.5715 50.3653 58.5741 50.0503C58.578 49.7348 58.8229 49.4616 59.1519 49.4856L60.4481 49.5V25.161H25.6288L25.6467 49.5069H45.892C46.2079 49.5069 46.4637 49.7627 46.4637 50.0782C46.4637 50.3936 46.2079 50.6494 45.892 50.6494Z" fill="url(#paint15_linear)"></path> <path d="M49.4287 29.9481H29.5246C29.1494 29.9481 28.8457 29.6444 28.8457 29.2692C28.8457 28.8941 29.1494 28.5908 29.5246 28.5908H49.4287C49.8039 28.5908 50.1076 28.8941 50.1076 29.2692C50.1076 29.6444 49.8043 29.9481 49.4287 29.9481Z" fill="url(#paint16_linear)"></path> <path d="M43.5478 35.6014H29.5246C29.1494 35.6014 28.8457 35.2981 28.8457 34.923C28.8457 34.5478 29.1494 34.2441 29.5246 34.2441H43.5478C43.9225 34.2441 44.2267 34.5478 44.2267 34.923C44.2267 35.2981 43.923 35.6014 43.5478 35.6014Z" fill="url(#paint17_linear)"></path> <path d="M43.5478 44.2533H29.5246C29.1494 44.2533 28.8457 43.95 28.8457 43.5748C28.8457 43.1997 29.1494 42.896 29.5246 42.896H43.5478C43.9225 42.896 44.2267 43.1993 44.2267 43.5748C44.2267 43.95 43.923 44.2533 43.5478 44.2533Z" fill="url(#paint18_linear)"></path> <path d="M48.6945 60.257C48.4758 60.257 48.2701 60.1524 48.1429 59.9738L45.9469 56.9093L41.8803 57.4239C41.6197 57.4583 41.3718 57.3407 41.2298 57.1241C41.0873 56.9093 41.0794 56.6309 41.2097 56.4083L45.6462 48.8036C45.8345 48.479 46.2519 48.3675 46.5739 48.5596C46.8972 48.7478 47.0074 49.164 46.8179 49.4873L43.0746 55.9046L46.1791 55.5128C46.427 55.4784 46.671 55.5895 46.8153 55.7913L48.6257 58.3185L51.6635 52.9273C51.8478 52.5983 52.2653 52.4841 52.5873 52.6685C52.9145 52.8528 53.03 53.2663 52.8456 53.5922L49.2858 59.9114C49.1716 60.1145 48.9625 60.2443 48.732 60.2561C48.7181 60.257 48.7063 60.257 48.6945 60.257Z" fill="url(#paint19_linear)"></path> <path d="M57.6199 60.7072C57.4116 60.7072 57.2129 60.6118 57.0835 60.4436L51.7168 53.5043C51.488 53.2085 51.542 52.7819 51.8388 52.5523C52.1329 52.3248 52.5594 52.375 52.7904 52.6743L57.3114 58.5191L58.0944 55.4995C58.158 55.2586 58.3476 55.0716 58.5889 55.0119L61.6111 54.266L57.789 49.4839C57.5559 49.1911 57.602 48.7646 57.8948 48.5297C58.1907 48.2979 58.6155 48.3441 58.8491 48.636L63.3335 54.2464C63.4777 54.4281 63.5204 54.6695 63.4459 54.8895C63.3719 55.1082 63.1902 55.2738 62.9662 55.3296L59.307 56.2333L58.2774 60.2001C58.2112 60.4506 58.0099 60.6415 57.7567 60.6946C57.7114 60.7033 57.6652 60.7072 57.6199 60.7072Z" fill="url(#paint20_linear)"></path> <path d="M52.2831 53.6392C48.3072 53.6392 45.0732 50.4057 45.0732 46.4311C45.0732 42.4555 48.3072 39.2212 52.2831 39.2212C56.2591 39.2212 59.493 42.4555 59.493 46.4311C59.493 50.4057 56.2591 53.6392 52.2831 53.6392ZM52.2831 40.5785C49.0562 40.5785 46.4305 43.2037 46.4305 46.4315C46.4305 49.6571 49.0557 52.2828 52.2831 52.2828C55.5105 52.2828 58.1362 49.6576 58.1362 46.4315C58.1362 43.2037 55.5105 40.5785 52.2831 40.5785Z" fill="url(#paint21_linear)"></path> <defs> <linearGradient id="paint0_linear" x1="6.61719" y1="30.0595" x2="56.9596" y2="25.6215" gradientUnits="userSpaceOnUse"> <stop stop-color="#A7845B"></stop> <stop offset="1" stop-color="#DDB174"></stop> </linearGradient> <linearGradient id="paint1_linear" x1="0.568359" y1="29.8275" x2="23.2213" y2="27.8697" gradientUnits="userSpaceOnUse"> <stop stop-color="#A7845B"></stop> <stop offset="1" stop-color="#DDB174"></stop> </linearGradient> <linearGradient id="paint2_linear" x1="5.20313" y1="30.5111" x2="52.5068" y2="26.1109" gradientUnits="userSpaceOnUse"> <stop stop-color="#A7845B"></stop> <stop offset="1" stop-color="#DDB174"></stop> </linearGradient> <linearGradient id="paint3_linear" x1="4.81661e-09" y1="29.6668" x2="3.29809" y2="29.5772" gradientUnits="userSpaceOnUse"> <stop stop-color="#A7845B"></stop> <stop offset="1" stop-color="#DDB174"></stop> </linearGradient> <linearGradient id="paint4_linear" x1="1.90625" y1="30.475" x2="29.7367" y2="28.4782" gradientUnits="userSpaceOnUse"> <stop stop-color="#A7845B"></stop> <stop offset="1" stop-color="#DDB174"></stop> </linearGradient> <linearGradient id="paint5_linear" x1="39.9316" y1="10.9191" x2="58.06" y2="9.61695" gradientUnits="userSpaceOnUse"> <stop stop-color="#A7845B"></stop> <stop offset="1" stop-color="#DDB174"></stop> </linearGradient> <linearGradient id="paint6_linear" x1="49.1309" y1="8.06287" x2="51.6098" y2="7.87059" gradientUnits="userSpaceOnUse"> <stop stop-color="#A7845B"></stop> <stop offset="1" stop-color="#DDB174"></stop> </linearGradient> <linearGradient id="paint7_linear" x1="16.8047" y1="15.892" x2="59.2987" y2="11.7074" gradientUnits="userSpaceOnUse"> <stop stop-color="#A7845B"></stop> <stop offset="1" stop-color="#DDB174"></stop> </linearGradient> <linearGradient id="paint8_linear" x1="9.45801" y1="22.859" x2="58.7988" y2="17.7104" gradientUnits="userSpaceOnUse"> <stop stop-color="#A7845B"></stop> <stop offset="1" stop-color="#DDB174"></stop> </linearGradient> <linearGradient id="paint9_linear" x1="3.77637" y1="30.0657" x2="48.1374" y2="25.7376" gradientUnits="userSpaceOnUse"> <stop stop-color="#A7845B"></stop> <stop offset="1" stop-color="#DDB174"></stop> </linearGradient> <linearGradient id="paint10_linear" x1="17.6465" y1="55.8208" x2="42.6878" y2="49.4021" gradientUnits="userSpaceOnUse"> <stop stop-color="#A7845B"></stop> <stop offset="1" stop-color="#DDB174"></stop> </linearGradient> <linearGradient id="paint11_linear" x1="9.51172" y1="48.5554" x2="47.506" y2="36.7407" gradientUnits="userSpaceOnUse"> <stop stop-color="#A7845B"></stop> <stop offset="1" stop-color="#DDB174"></stop> </linearGradient> <linearGradient id="paint12_linear" x1="12.3535" y1="52.0672" x2="43.4422" y2="42.4576" gradientUnits="userSpaceOnUse"> <stop stop-color="#A7845B"></stop> <stop offset="1" stop-color="#DDB174"></stop> </linearGradient> <linearGradient id="paint13_linear" x1="21" y1="37.4069" x2="44.2378" y2="36.2033" gradientUnits="userSpaceOnUse"> <stop stop-color="#A7845B"></stop> <stop offset="1" stop-color="#DDB174"></stop> </linearGradient> <linearGradient id="paint14_linear" x1="21.3691" y1="37.4069" x2="63.8953" y2="33.35" gradientUnits="userSpaceOnUse"> <stop stop-color="#A7845B"></stop> <stop offset="1" stop-color="#DDB174"></stop> </linearGradient> <linearGradient id="paint15_linear" x1="24.4863" y1="37.4376" x2="60.9766" y2="33.7821" gradientUnits="userSpaceOnUse"> <stop stop-color="#A7845B"></stop> <stop offset="1" stop-color="#DDB174"></stop> </linearGradient> <linearGradient id="paint16_linear" x1="28.8457" y1="29.2747" x2="38.1549" y2="18.7892" gradientUnits="userSpaceOnUse"> <stop stop-color="#A7845B"></stop> <stop offset="1" stop-color="#DDB174"></stop> </linearGradient> <linearGradient id="paint17_linear" x1="28.8457" y1="34.928" x2="38.0277" y2="27.4464" gradientUnits="userSpaceOnUse"> <stop stop-color="#A7845B"></stop> <stop offset="1" stop-color="#DDB174"></stop> </linearGradient> <linearGradient id="paint18_linear" x1="28.8457" y1="43.5799" x2="38.0277" y2="36.0983" gradientUnits="userSpaceOnUse"> <stop stop-color="#A7845B"></stop> <stop offset="1" stop-color="#DDB174"></stop> </linearGradient> <linearGradient id="paint19_linear" x1="41.1172" y1="54.4068" x2="52.7937" y2="53.5655" gradientUnits="userSpaceOnUse"> <stop stop-color="#A7845B"></stop> <stop offset="1" stop-color="#DDB174"></stop> </linearGradient> <linearGradient id="paint20_linear" x1="51.5752" y1="54.5925" x2="63.3455" y2="53.7749" gradientUnits="userSpaceOnUse"> <stop stop-color="#A7845B"></stop> <stop offset="1" stop-color="#DDB174"></stop> </linearGradient> <linearGradient id="paint21_linear" x1="45.0732" y1="46.4861" x2="59.3229" y2="45.4614" gradientUnits="userSpaceOnUse"> <stop stop-color="#A7845B"></stop> <stop offset="1" stop-color="#DDB174"></stop> </linearGradient> </defs> </svg> 