<?xml version="1.0" encoding="UTF-8"?> <svg xmlns="http://www.w3.org/2000/svg" width="66" height="61" viewBox="0 0 66 61" fill="none"> <g opacity="0.3"> <path d="M44.5131 33.7607C46.5373 32.3691 48.1639 30.4172 49.3386 28.2485C50.5314 26.0436 51.164 23.5676 51.1459 21.0735C51.0917 18.5975 49.9893 16.3023 48.6157 14.3142C47.0976 12.1455 45.3084 10.1032 42.8866 8.87429C40.3202 7.59111 37.284 7.73569 34.555 8.31403C31.6091 8.91043 28.609 9.3984 25.9161 10.79C23.4401 12.0913 21.5063 14.2239 19.6809 16.3203C17.8917 18.3626 16.1748 20.5313 13.988 22.1579C11.2589 24.1278 8.65644 25.899 5.36717 26.7846C4.31894 27.0376 4.57196 28.6642 5.65633 28.6461C8.63837 28.5919 11.3132 27.9412 13.9157 26.4593C16.1386 25.1761 18.0724 23.5857 19.8436 21.7241C22.8798 18.5614 25.7534 14.0793 30.1632 12.7961C31.4283 12.4166 32.8019 12.2359 34.1031 11.8925C35.549 11.531 37.031 11.1153 38.5129 10.9707C41.2239 10.6997 43.3565 12.4527 45.0192 14.3865C46.5735 16.2119 47.3867 18.1457 47.4229 20.5494C47.441 22.7724 46.7903 24.9231 45.724 26.8569C43.3203 31.0679 38.6937 32.3872 34.6092 34.4475C29.6391 36.9596 24.145 38.7669 18.5785 39.0922C17.964 39.1465 17.5122 39.5079 17.3134 40.1043C16.2832 43.1406 19.1207 45.1105 21.4702 46.3756C22.6268 46.9901 23.8196 47.5142 24.9221 48.2371C26.3137 49.1589 27.5788 50.2975 28.7535 51.4903C31.085 53.7855 33.0549 56.2615 34.8622 58.9725C34.9887 59.1713 35.1152 59.352 35.2417 59.5508C36.3261 59.352 37.3743 59.1171 38.4045 58.8098C37.9707 58.1773 37.5551 57.5266 37.1575 56.876C35.549 54.2193 33.9947 51.4722 31.8802 49.2131C29.8379 47.0624 27.4342 45.1647 24.7594 43.8274C23.6389 43.2671 22.5365 42.7249 21.5063 42.0201C21.3256 41.9116 21.1268 41.749 20.946 41.5502C26.3679 40.8815 31.4103 38.9115 36.543 37.0681C39.1816 36.1102 42.1998 35.3692 44.5131 33.7607Z" fill="url(#paint0_linear)"></path> <path d="M14.7837 32.3691C13.8981 32.9113 13.0667 33.4535 12.0727 33.7427C11.0245 34.0499 9.81361 33.8873 8.7473 33.7427C6.23516 33.4354 3.7411 33.2005 1.24703 32.8571C0.867501 32.821 0.506042 32.7667 0.12651 32.7125C0.162656 33.2186 0.234948 33.7246 0.289167 34.2126C1.59042 34.4114 2.8736 34.6282 4.1387 34.9355C5.74719 35.315 7.44605 35.4415 9.07261 35.6945C10.4642 35.9114 11.8197 35.7849 13.2113 35.4957C16.1391 34.8993 18.7778 33.58 21.6875 32.9294C24.6696 32.3149 27.742 32.1884 30.7601 31.845C35.5314 31.3209 40.5918 30.345 44.1703 26.9292C47.7306 23.5315 46.0498 18.2542 42.6341 15.4529C40.9714 14.0974 39.2183 13.3564 37.0315 13.5371C35.1338 13.6817 33.2904 14.2781 31.5734 15.0914C27.995 16.8083 25.3202 20.0253 22.4647 22.664C19.32 25.5918 16.0849 28.1943 11.8016 29.1521C7.97017 29.9835 3.95797 29.9474 0 29.8208C0 29.8931 0 29.9474 0 30.0196C0 30.6883 0.0180722 31.339 0.0542181 31.9896C1.75307 32.3691 3.43386 32.6944 5.11464 32.8571C8.31355 33.1643 11.5305 32.6764 14.5126 31.4474C16.8982 30.4353 18.9947 29.1883 20.9646 27.5075C22.79 25.9894 24.3623 24.1821 26.0431 22.5375C29.2059 19.3747 32.965 15.724 37.6821 15.4348C42.7425 15.1456 46.9716 21.7242 43.3208 25.7364C41.0979 28.1943 37.2483 29.369 34.0675 29.7847C29.6938 30.363 25.266 29.4232 20.8923 30.0919C18.6332 30.3992 16.7175 31.1582 14.7837 32.3691Z" fill="url(#paint1_linear)"></path> <path d="M37.1746 25.303C33.4516 27.2187 29.1683 27.1464 25.12 27.3994C24.7224 27.4175 24.5959 28.0681 25.0296 28.1223C27.8309 28.4838 30.6864 28.7368 33.5058 28.2488C35.8734 27.8512 38.6024 27.1102 40.4097 25.4475C42.0001 24.0017 42.6688 21.2908 41.7471 19.3208C40.8796 17.4774 38.1867 17.0617 36.3975 17.0075C33.6685 16.9352 32.0058 18.7425 30.0358 20.2967C28.9876 21.1281 25.4453 23.5499 27.5598 25.1222C28.1382 25.5198 29.0237 25.5379 29.6924 25.5198C30.9575 25.5198 32.2588 25.303 33.5058 25.0138C34.9336 24.6885 38.2048 23.4234 37.9518 21.5438C37.8795 21.092 37.3192 20.857 37.0662 21.3088C36.2529 22.7908 34.6625 23.333 33.1082 23.7125C32.0781 23.9475 31.0298 24.0198 29.9816 24.074C29.7466 24.0921 29.5117 24.074 29.2587 24.0559C29.2045 24.0559 29.1502 24.0559 29.078 24.0559C29.4936 23.6402 30.2165 23.3149 30.6503 23.0438C31.3371 22.6282 31.9696 22.2125 32.5841 21.7064C33.9757 20.5859 35.3312 19.8269 37.1023 19.6823C38.3674 19.5558 39.9579 19.6642 40.0121 21.2365C40.0844 23.1161 38.7108 24.5077 37.1746 25.303Z" fill="url(#paint2_linear)"></path> <path d="M2.80159 37.9538C5.45831 39.0743 8.31384 39.7611 11.2236 39.9057C12.579 39.9961 14.0249 39.978 15.3623 39.725C17.025 39.3997 18.6154 38.6044 20.1697 37.9538C21.6517 37.3213 23.0975 36.761 24.6337 36.3092C26.1518 35.8754 27.6157 35.514 29.0073 34.7368C29.405 34.5019 29.2242 33.9958 28.8628 33.8332C27.6338 33.3452 26.0976 33.8874 24.8325 34.1946C23.2963 34.5742 21.742 35.1887 20.1697 35.4055C18.6335 35.6405 17.1334 36.0381 15.6334 36.5441C14.2056 36.996 13.1032 37.7008 11.5489 37.755C8.69337 37.8454 5.85592 36.9417 3.10883 36.2911C2.2594 36.0923 1.40997 35.9296 0.560547 35.8212C0.650912 36.273 0.759348 36.7249 0.867786 37.1948C1.50034 37.4116 2.15096 37.6646 2.80159 37.9538Z" fill="url(#paint3_linear)"></path> <path d="M6.34347 42.579C7.69894 42.7778 9.07248 42.9044 10.4099 43.1755C12.0003 43.5369 13.0666 44.296 14.1871 45.4526C15.2534 46.5732 16.3559 47.531 17.2595 48.7961C18.1993 50.1516 19.3741 50.8022 20.8741 51.4348C22.1573 51.9589 23.4405 52.3927 24.6152 53.1517C25.7357 53.8746 26.784 55.0313 27.6153 56.0976C27.9948 56.5675 28.9346 56.2964 28.6816 55.6277C27.6153 52.9529 25.8261 51.0553 23.1513 49.989C21.6512 49.4106 19.8259 49.1937 18.8499 47.8202C17.8559 46.4467 16.8981 45.0189 15.8679 43.6634C13.8076 40.9344 10.699 40.591 7.48206 40.6814C5.72899 40.7175 4.1205 40.4103 2.36742 40.1392C2.15055 40.1031 1.93367 40.0669 1.7168 40.0308C1.9156 40.5729 2.1144 41.1332 2.34935 41.6754C3.66867 42.0188 4.988 42.3441 6.34347 42.579Z" fill="url(#paint4_linear)"></path> <path d="M42.3433 57.3624C40.9336 55.537 39.7408 53.531 38.9636 51.3983C38.0961 48.9224 37.3732 46.1753 35.5659 44.1872C34.7526 43.3017 33.6683 42.7053 32.5297 42.3438C36.072 41.7835 39.5781 40.9883 43.03 39.7594C47.9278 38.0605 51.9219 33.8315 54.0907 29.2229C55.3016 26.7107 55.8076 24.1444 56.0426 21.3792C56.2775 18.7405 55.6088 16.3007 54.4521 13.9512C52.3557 9.66793 48.5242 6.6136 43.9337 5.42079C39.9938 4.35449 35.7647 4.95089 31.8429 5.8184C27.162 6.84855 22.8787 9.16189 19.3003 12.3066C17.5653 13.8247 16.0471 15.4874 14.2218 16.879C12.3964 18.2526 10.4084 19.3731 8.36614 20.3671C6.34197 21.3431 4.15515 21.9937 1.96832 22.572C1.60686 22.6985 1.22733 22.7889 0.8478 22.8973C0.685144 23.5118 0.558633 24.1624 0.450195 24.795C1.49843 24.7046 2.51051 24.5239 3.54067 24.3432C6.25161 23.819 8.9264 22.6443 11.3301 21.3431C13.8603 19.9695 16.1556 18.2345 18.252 16.3007C20.5112 14.2404 22.0293 11.4029 24.6499 9.79444C27.3247 8.13173 30.6681 7.44496 33.7044 6.92084C36.4334 6.46902 39.0901 6.34251 41.8191 6.75819C46.735 7.49918 50.6749 10.4631 52.9702 14.8187C54.7594 18.2164 54.6329 21.8129 53.1509 25.2649C51.7231 28.6264 49.7532 31.7711 47.3133 34.5001C44.9819 37.0304 41.6023 38.7473 38.3672 39.7413C34.9334 40.8076 31.2103 41.2414 27.6319 41.3136C26.7102 41.3317 26.4571 42.8318 27.4331 42.9764C28.156 43.1029 28.8609 43.2475 29.5476 43.4643C30.5236 43.7716 31.0477 44.3318 31.8429 44.8921C32.7827 45.5427 33.5417 46.2837 34.0659 47.2958C34.6803 48.4705 35.0779 49.7718 35.6924 50.9646C36.3792 52.2658 37.066 53.6032 37.7889 54.9045C38.4214 56.0612 39.1263 57.2178 39.9757 58.3203C40.789 58.013 41.5661 57.7058 42.3433 57.3624Z" fill="url(#paint5_linear)"></path> <path d="M8.47787 50.9287C9.86949 52.3565 11.4057 53.6397 13.0503 54.7783C13.719 54.7963 14.3696 54.7963 15.0203 54.8325C15.9781 54.8686 17.1529 54.8686 18.2373 55.0494C18.6529 55.212 19.0686 55.4108 19.4662 55.6096C20.9482 56.3868 22.3398 57.3446 23.8218 58.1398C24.9423 58.7001 26.0809 59.3327 27.2195 59.8929C28.1412 59.9652 29.081 60.0194 30.0027 60.0194C30.1835 60.0194 30.3823 60.0194 30.563 60.0014C30.3823 59.7845 30.1473 59.5676 29.9304 59.3507C28.6473 58.1398 27.1111 57.3988 25.5387 56.6036C24.0387 55.8446 22.6109 54.9409 21.1651 54.0734C19.6289 53.1698 17.9119 52.5734 16.3938 51.6697C15.3456 51.001 14.6227 49.6998 13.719 48.8504C12.4539 47.6575 11.0442 46.6274 9.58032 45.7057C8.17063 44.802 6.48985 44.4767 4.88136 44.1875C4.42953 44.1152 3.97771 44.0972 3.50781 44.0972C3.8512 44.7116 4.19458 45.3081 4.57412 45.9225C5.00787 46.0852 5.44162 46.3021 5.83922 46.6635C6.43563 47.2238 7.06818 47.7479 7.73688 48.2359C9.11042 49.2299 10.4659 50.2058 11.7671 51.3444C12.0744 51.6336 12.3997 51.9047 12.7069 52.1758C12.1467 52.0854 11.5683 51.977 11.0262 51.7962C10.1225 51.5251 9.47188 50.9649 8.47787 50.9287Z" fill="url(#paint6_linear)"></path> <path d="M44.9678 56.0261C44.1364 55.0141 43.5039 53.8755 43.1063 52.6284C42.5822 50.9657 42.3833 49.2307 41.8773 47.5861C41.6424 46.8812 41.6062 46.1222 41.5158 45.3631C41.4436 44.9836 41.5339 44.9474 41.8773 44.7486C43.0159 44.098 44.3533 43.7908 45.5461 43.1763C47.0642 42.3811 48.3836 41.2244 49.6487 40.0497C51.3295 38.4954 52.9741 37.0676 54.185 35.2423C54.2211 35.2242 54.2573 35.188 54.2934 35.1519C55.0886 34.2302 55.7935 33.2181 56.6971 32.3867C57.7092 31.465 58.1791 29.9469 58.6851 28.7179C59.0647 27.7781 59.39 26.8022 59.7153 25.8263C59.3538 23.3683 58.7394 21.0189 57.8357 18.814C57.7996 19.0489 57.7996 19.3019 57.7634 19.5007C57.5646 20.7839 57.402 22.0852 57.4381 23.3503C57.4743 23.9828 57.655 24.7238 57.5646 25.3564C57.42 26.1154 57.2212 26.8564 57.0224 27.6155C56.661 28.8083 55.9381 29.8385 55.5404 31.0132C55.4139 31.3385 55.3236 31.6458 55.2151 31.953C55.0525 31.953 54.8898 32.0253 54.8356 32.2241C54.203 33.9772 52.9018 35.3326 51.5283 36.5977C50.1909 37.8267 48.7631 39.399 47.1004 40.2485C45.4919 41.0798 43.6665 41.5316 41.9496 42.0919C40.7929 42.4534 39.6543 43.0136 39.2025 44.1884C38.588 45.833 39.8351 47.0077 40.3592 48.4536C41.0098 50.2609 41.4436 52.1405 42.1303 53.9297C42.5099 54.8875 43.0882 55.8093 43.775 56.6768C44.1726 56.4599 44.5702 56.2611 44.9678 56.0261Z" fill="url(#paint7_linear)"></path> <path d="M1.53516 20.4938C1.86047 20.4034 2.16771 20.295 2.45688 20.1684C3.7762 19.6624 5.02323 18.9937 6.27027 18.325C7.64381 17.6021 9.10772 17.0238 10.5355 16.3731C11.8367 15.7767 13.138 15.1261 14.3489 14.367C15.5598 13.5899 16.608 12.4513 17.602 11.4031C19.4997 9.41505 21.4335 7.57161 23.801 6.16192C28.3735 3.45098 33.9038 3.12567 39.0726 2.94494C40.5366 2.89072 41.9462 2.90879 43.3198 3.12567C41.9824 2.47504 40.6088 1.91478 39.1992 1.44488C34.4098 1.06535 29.6205 1.55332 25.0842 3.25218C22.4998 4.22812 20.0961 5.42093 17.8912 7.11979C15.5417 8.94516 13.7163 11.2766 11.0596 12.6863C8.43902 14.0779 5.72808 15.1261 3.16172 16.6081C2.52917 17.8551 1.98698 19.1564 1.53516 20.4938Z" fill="url(#paint8_linear)"></path> <path d="M59.9459 31.8444C59.9821 31.2841 60.0002 30.7058 60.0002 30.1274C59.9098 30.1274 59.8194 30.1817 59.7471 30.272C58.3194 32.0612 57 33.8685 55.4639 35.5493C53.8734 37.3024 52.1926 39.0013 50.6203 40.7724C49.8612 41.6218 49.1022 42.4893 48.3431 43.3388C47.7467 44.0255 46.8973 44.4954 46.2467 45.1099C44.8008 46.4834 44.2948 48.4173 44.5478 50.3149C44.7827 52.0861 45.6864 53.55 46.8611 54.8331C47.4937 54.3994 48.0901 53.9295 48.7226 53.4596C48.2889 52.6644 48.1082 52.068 48.1262 51.1101C48.1624 50.2968 48.2347 49.4474 48.2527 48.598C48.2527 48.5257 48.325 48.0377 48.307 48.0016C48.4154 47.7124 48.6865 47.4955 48.9034 47.2787C49.4998 46.7184 50.1866 46.2666 50.783 45.7063C51.7047 44.8388 52.4637 43.7725 53.2951 42.8327C54.8855 41.0074 56.5663 39.3989 57.6868 37.212C58.5362 35.477 59.1688 33.6336 59.9459 31.8444Z" fill="url(#paint9_linear)"></path> <path d="M56.606 42.4896C55.5217 43.6463 54.1481 44.4053 53.1903 45.7066C52.1782 47.0078 51.889 48.5079 51.3107 49.9899C51.1299 50.4236 51.0034 50.9477 50.9492 51.4719C52.2866 50.1525 53.5156 48.7248 54.6 47.1886C54.7084 46.9717 54.8168 46.7548 54.9433 46.556C55.4494 45.797 55.9012 45.0017 56.4072 44.2427C56.6783 43.8631 56.9314 43.4655 57.2386 43.1041C57.4013 42.9053 57.3832 42.6884 57.2747 42.5438C57.1121 42.3269 56.8229 42.2366 56.606 42.4896Z" fill="url(#paint10_linear)"></path> <path d="M5.96582 12.0366C6.79718 11.5486 7.6466 11.0245 8.5141 10.5727C10.8094 9.37986 13.1588 8.24126 15.3999 6.95808C17.153 5.946 18.6169 4.50016 20.2254 3.32542C22.0327 1.98802 24.0207 1.57235 26.1714 1.1386C28.069 0.759064 29.9848 0.379532 31.9005 0.0722919C31.286 0.036146 30.6535 0 30.0028 0C25.0508 0 20.3519 1.19282 16.2312 3.34349C16.1047 3.47001 15.9602 3.57844 15.7975 3.68688C14.6228 4.59053 13.3034 5.31344 12.0022 6.00022C9.70692 7.71715 7.68275 9.75939 5.96582 12.0366Z" fill="url(#paint11_linear)"></path> </g> <path d="M60.5419 57.301C61.5137 57.301 62.3015 56.5132 62.3015 55.5414C62.3015 54.5696 61.5137 53.7817 60.5419 53.7817C59.57 53.7817 58.7822 54.5696 58.7822 55.5414C58.7822 56.5132 59.57 57.301 60.5419 57.301Z" stroke="url(#paint12_linear)" stroke-width="1.4" stroke-miterlimit="10" stroke-linecap="round" stroke-linejoin="round"></path> <path d="M41.7723 57.301C42.7442 57.301 43.532 56.5132 43.532 55.5414C43.532 54.5696 42.7442 53.7817 41.7723 53.7817C40.8005 53.7817 40.0127 54.5696 40.0127 55.5414C40.0127 56.5132 40.8005 57.301 41.7723 57.301Z" stroke="url(#paint13_linear)" stroke-width="1.4" stroke-miterlimit="10" stroke-linecap="round" stroke-linejoin="round"></path> <path d="M51.1571 57.301C52.1289 57.301 52.9168 56.5132 52.9168 55.5414C52.9168 54.5696 52.1289 53.7817 51.1571 53.7817C50.1853 53.7817 49.3975 54.5696 49.3975 55.5414C49.3975 56.5132 50.1853 57.301 51.1571 57.301Z" stroke="url(#paint14_linear)" stroke-width="1.4" stroke-miterlimit="10" stroke-linecap="round" stroke-linejoin="round"></path> <path d="M60.5425 50.8491H60.5415H41.7704C39.1808 50.8502 37.0801 52.9498 37.0801 55.5415C37.0801 58.1332 39.1808 60.2344 41.7704 60.2355H60.542H60.5431C63.1348 60.235 65.236 58.1337 65.236 55.541C65.236 52.9493 63.1348 50.8491 60.5425 50.8491Z" stroke="url(#paint15_linear)" stroke-width="1.4" stroke-miterlimit="10" stroke-linecap="round" stroke-linejoin="round"></path> <path d="M58.1964 47.3296H44.1182V50.8494H58.1964V47.3296Z" stroke="url(#paint16_linear)" stroke-width="1.4" stroke-miterlimit="10" stroke-linecap="round" stroke-linejoin="round"></path> <path d="M51.1563 28.5591V42.6368H41.7715V47.3297H65.235L62.8883 28.5591H51.1563Z" stroke="url(#paint17_linear)" stroke-width="1.4" stroke-miterlimit="10" stroke-linecap="round" stroke-linejoin="round"></path> <path d="M51.1563 42.6368H41.7715L46.4633 28.5591H51.1563V42.6368Z" stroke="url(#paint18_linear)" stroke-width="1.4" stroke-miterlimit="10" stroke-linecap="round" stroke-linejoin="round"></path> <path d="M26.5193 25.0386C28.4629 25.0386 30.0386 23.4629 30.0386 21.5193C30.0386 19.5756 28.4629 18 26.5193 18C24.5756 18 23 19.5756 23 21.5193C23 23.4629 24.5756 25.0386 26.5193 25.0386Z" stroke="url(#paint19_linear)" stroke-width="1.4" stroke-miterlimit="10" stroke-linecap="round" stroke-linejoin="round"></path> <path d="M26.519 46.1553V48.502C25.224 48.502 24.1729 49.5531 24.1729 50.8487C24.1729 52.1448 25.224 53.1944 26.519 53.1944C27.8157 53.1944 28.8658 52.1448 28.8658 50.8487C28.8658 52.1448 27.8157 53.1944 26.519 53.1944C25.224 53.1944 24.1729 52.1448 24.1729 50.8487C24.1729 49.5531 25.224 48.502 26.519 48.502V46.1553Z" stroke="url(#paint20_linear)" stroke-width="1.4" stroke-miterlimit="10" stroke-linecap="round" stroke-linejoin="round"></path> <path d="M26.5195 25.0386V42.6366V25.0386Z" stroke="url(#paint21_linear)" stroke-width="1.4" stroke-miterlimit="10" stroke-linecap="round" stroke-linejoin="round"></path> <path d="M28.2791 42.6367H24.7598V46.1565H28.2791V42.6367Z" stroke="url(#paint22_linear)" stroke-width="1.4" stroke-miterlimit="10" stroke-linecap="round" stroke-linejoin="round"></path> <path d="M43.6418 37.0208L29.8498 22.6016C29.458 23.8048 28.4512 24.7265 27.1895 24.9715L41.7713 47.3295V42.6366L43.6418 37.0208Z" stroke="url(#paint23_linear)" stroke-width="1.4" stroke-miterlimit="10" stroke-linecap="round" stroke-linejoin="round"></path> <defs> <linearGradient id="paint0_linear" x1="4.69922" y1="33.9192" x2="50.6436" y2="30.9493" gradientUnits="userSpaceOnUse"> <stop stop-color="#A7845B"></stop> <stop offset="1" stop-color="#DDB174"></stop> </linearGradient> <linearGradient id="paint1_linear" x1="6.69019e-08" y1="24.7434" x2="44.8499" y2="18.0674" gradientUnits="userSpaceOnUse"> <stop stop-color="#A7845B"></stop> <stop offset="1" stop-color="#DDB174"></stop> </linearGradient> <linearGradient id="paint2_linear" x1="24.7578" y1="22.8069" x2="41.8473" y2="20.9491" gradientUnits="userSpaceOnUse"> <stop stop-color="#A7845B"></stop> <stop offset="1" stop-color="#DDB174"></stop> </linearGradient> <linearGradient id="paint3_linear" x1="0.560547" y1="36.821" x2="26.2997" y2="28.4218" gradientUnits="userSpaceOnUse"> <stop stop-color="#A7845B"></stop> <stop offset="1" stop-color="#DDB174"></stop> </linearGradient> <linearGradient id="paint4_linear" x1="1.7168" y1="48.2453" x2="28.1683" y2="45.0945" gradientUnits="userSpaceOnUse"> <stop stop-color="#A7845B"></stop> <stop offset="1" stop-color="#DDB174"></stop> </linearGradient> <linearGradient id="paint5_linear" x1="0.450195" y1="31.7919" x2="55.4095" y2="27.68" gradientUnits="userSpaceOnUse"> <stop stop-color="#A7845B"></stop> <stop offset="1" stop-color="#DDB174"></stop> </linearGradient> <linearGradient id="paint6_linear" x1="3.50781" y1="52.12" x2="29.9868" y2="48.8849" gradientUnits="userSpaceOnUse"> <stop stop-color="#A7845B"></stop> <stop offset="1" stop-color="#DDB174"></stop> </linearGradient> <linearGradient id="paint7_linear" x1="39.0361" y1="37.8921" x2="59.5454" y2="37.0867" gradientUnits="userSpaceOnUse"> <stop stop-color="#A7845B"></stop> <stop offset="1" stop-color="#DDB174"></stop> </linearGradient> <linearGradient id="paint8_linear" x1="1.53516" y1="10.983" x2="42.0453" y2="4.63414" gradientUnits="userSpaceOnUse"> <stop stop-color="#A7845B"></stop> <stop offset="1" stop-color="#DDB174"></stop> </linearGradient> <linearGradient id="paint9_linear" x1="44.4854" y1="42.576" x2="59.865" y2="41.8816" gradientUnits="userSpaceOnUse"> <stop stop-color="#A7845B"></stop> <stop offset="1" stop-color="#DDB174"></stop> </linearGradient> <linearGradient id="paint10_linear" x1="50.9492" y1="46.9395" x2="57.2994" y2="46.6192" gradientUnits="userSpaceOnUse"> <stop stop-color="#A7845B"></stop> <stop offset="1" stop-color="#DDB174"></stop> </linearGradient> <linearGradient id="paint11_linear" x1="5.96582" y1="6.06493" x2="31.1232" y2="2.16745" gradientUnits="userSpaceOnUse"> <stop stop-color="#A7845B"></stop> <stop offset="1" stop-color="#DDB174"></stop> </linearGradient> <linearGradient id="paint12_linear" x1="58.7822" y1="55.555" x2="62.26" y2="55.305" gradientUnits="userSpaceOnUse"> <stop stop-color="#A7845B"></stop> <stop offset="1" stop-color="#DDB174"></stop> </linearGradient> <linearGradient id="paint13_linear" x1="40.0127" y1="55.555" x2="43.4905" y2="55.305" gradientUnits="userSpaceOnUse"> <stop stop-color="#A7845B"></stop> <stop offset="1" stop-color="#DDB174"></stop> </linearGradient> <linearGradient id="paint14_linear" x1="49.3975" y1="55.555" x2="52.8752" y2="55.305" gradientUnits="userSpaceOnUse"> <stop stop-color="#A7845B"></stop> <stop offset="1" stop-color="#DDB174"></stop> </linearGradient> <linearGradient id="paint15_linear" x1="37.0801" y1="55.5787" x2="63.8045" y2="49.8147" gradientUnits="userSpaceOnUse"> <stop stop-color="#A7845B"></stop> <stop offset="1" stop-color="#DDB174"></stop> </linearGradient> <linearGradient id="paint16_linear" x1="44.1182" y1="49.1031" x2="57.034" y2="45.3887" gradientUnits="userSpaceOnUse"> <stop stop-color="#A7845B"></stop> <stop offset="1" stop-color="#DDB174"></stop> </linearGradient> <linearGradient id="paint17_linear" x1="41.7715" y1="38.0171" x2="64.8913" y2="35.9391" gradientUnits="userSpaceOnUse"> <stop stop-color="#A7845B"></stop> <stop offset="1" stop-color="#DDB174"></stop> </linearGradient> <linearGradient id="paint18_linear" x1="41.7715" y1="35.6525" x2="51.0721" y2="35.2067" gradientUnits="userSpaceOnUse"> <stop stop-color="#A7845B"></stop> <stop offset="1" stop-color="#DDB174"></stop> </linearGradient> <linearGradient id="paint19_linear" x1="23" y1="21.5466" x2="29.9555" y2="21.0464" gradientUnits="userSpaceOnUse"> <stop stop-color="#A7845B"></stop> <stop offset="1" stop-color="#DDB174"></stop> </linearGradient> <linearGradient id="paint20_linear" x1="24.1729" y1="49.7021" x2="28.8237" y2="49.4792" gradientUnits="userSpaceOnUse"> <stop stop-color="#A7845B"></stop> <stop offset="1" stop-color="#DDB174"></stop> </linearGradient> <linearGradient id="paint21_linear" x1="26.5195" y1="33.9058" x2="27.5128" y2="33.9017" gradientUnits="userSpaceOnUse"> <stop stop-color="#A7845B"></stop> <stop offset="1" stop-color="#DDB174"></stop> </linearGradient> <linearGradient id="paint22_linear" x1="24.7598" y1="44.4103" x2="28.2375" y2="44.1602" gradientUnits="userSpaceOnUse"> <stop stop-color="#A7845B"></stop> <stop offset="1" stop-color="#DDB174"></stop> </linearGradient> <linearGradient id="paint23_linear" x1="27.1895" y1="35.0614" x2="43.4945" y2="34.2813" gradientUnits="userSpaceOnUse"> <stop stop-color="#A7845B"></stop> <stop offset="1" stop-color="#DDB174"></stop> </linearGradient> </defs> </svg> 